# xmcd
#
# Track frame offsets:
#	150
#	22095
#	43449
#	63177
#	82944
#	103892
#	123906
#	128716
#	147435
#	169341
#	189421
#	211135
#	232542
#	255808
#	277395
#
# Disc length: 3911 seconds
#
# Revision: 81313810
# Processed by: cddbd v1.5.2PL0 Copyright (c) Steve Scherf et al.
# Submitted via: EasyCDDAExtractor 8.0.2.1
#
DISCID=d20f450f
DTITLE=דני רובס - עשור או שאני יורה
DYEAR=1994
DGENRE=World
TTITLE0=פנים ושמות
TTITLE1=הצגה
TTITLE2=רכבות 68-80-88
TTITLE3=איך הוא שר
TTITLE4=דבר לא קרה
TTITLE5=הבן של הקוסם
TTITLE6=מסגרות
TTITLE7=ציפורים כהות עפות מעל העיר
TTITLE8=לא נרדמת תל-אביב
TTITLE9=מחר הוא יחזור
TTITLE10=אני בא הביתה מהלילה
TTITLE11=בדרך אל האושר
TTITLE12=זה לא אני
TTITLE13=אני מדבר
TTITLE14=גן המשחקים
EXTD=YEAR: 1994
EXTT0=
EXTT1=
EXTT2=
EXTT3=
EXTT4=
EXTT5=
EXTT6=
EXTT7=
EXTT8=
EXTT9=
EXTT10=
EXTT11=
EXTT12=
EXTT13=
EXTT14=
PLAYORDER=
